<svg xmlns="http://www.w3.org/2000/svg" width="64" height="64" fill="none">
    <path fill="#000" fill-rule="evenodd" d="M32 53.133c17.673 0 32-8.084 32-18.057V28.51h-2.181C57.164 21.784 45.568 17.019 32 17.019S6.836 21.784 2.181 28.509H0v6.567c0 9.973 14.327 18.057 32 18.057" clip-rule="evenodd" style="stroke-width:.533332"/>
    <path fill="#fff" stroke="#000" stroke-width="4.267" d="M61.867 29.133c0 3.903-2.813 7.862-8.292 10.966-5.414 3.069-13.038 5.034-21.575 5.034S15.84 43.168 10.424 40.1c-5.478-3.104-8.29-7.063-8.29-10.966s2.812-7.861 8.29-10.966C15.84 15.1 23.463 13.133 32 13.133s16.16 1.966 21.575 5.034c5.48 3.105 8.292 7.064 8.292 10.966z"/>
    <path fill="#000" d="M30.873 39.832 46.55 23.713c.717-.737.08-1.961-.935-1.797L13.91 27.058c-1.117.18-1.22 1.749-.135 2.074l11.14 3.342c.268.08.494.264.628.51l3.63 6.617c.345.63 1.2.745 1.7.231" style="stroke-width:.533332"/>
    <ellipse cx="30.933" cy="29.933" fill="#fff" rx="3.733" ry="2.4" style="stroke-width:.533332"/>
</svg>
