<svg xmlns="http://www.w3.org/2000/svg" width="120" height="60" viewBox="0 0 120 60"><path d="M4 43.799L8.453 43.799L8.453 35.543L16.934 35.543L16.934 32.129L8.453 32.129L8.453 27.511L18.239 27.511L18.239 23.817L4 23.817Z"/><path d="M25.34 29.764c-.827 .55-1.433 1.301-1.82 2.253h-.055v-2.687h-3.722v14.469h3.915V37.278c0-3.097 1.286-4.646 3.86-4.646c.478 0 .947 .047 1.406 .14V29.078c-.275-.093-.561-.14-.855-.14C27.077 28.938 26.167 29.213 25.34 29.764z"/><path d="M42.207 31.037c-.658-.672-1.453-1.19-2.384-1.553c-.931-.364-1.979-.546-3.145-.546c-1.129 0-2.154 .178-3.075 .532c-.922 .355-1.716 .863-2.384 1.525c-.668 .663-1.18 1.465-1.538 2.407c-.357 .942-.536 2.001-.536 3.176c0 1.119 .174 2.146 .522 3.079c.348 .933 .851 1.735 1.509 2.407c.658 .672 1.453 1.194 2.384 1.567c.931 .373 1.97 .559 3.118 .559c1.129 0 2.158-.182 3.089-.546c.931-.364 1.73-.877 2.398-1.539c.667-.662 1.18-1.464 1.538-2.407c.357-.942 .536-1.982 .536-3.12c0-1.138-.174-2.178-.522-3.12C43.368 32.516 42.866 31.709 42.207 31.037zM39.344 39.979c-.593 .811-1.481 1.217-2.666 1.217c-1.147 0-2.022-.401-2.623-1.203c-.602-.802-.903-1.94-.903-3.415c0-1.511 .301-2.663 .903-3.456c.602-.793 1.467-1.19 2.596-1.19c1.185 0 2.078 .397 2.68 1.19c.602 .793 .903 1.945 .903 3.456C40.233 38.034 39.936 39.167 39.344 39.979z"/><path d="M63.574 28.938c-1.863 0-3.356 .802-4.477 2.407c-.723-1.605-2.158-2.407-4.306-2.407c-1.882 0-3.384 .784-4.506 2.351h-.057v-1.959h-3.822v14.469h4.049v-8.424c0-1.008 .257-1.809 .77-2.407c.513-.597 1.169-.895 1.968-.895c.856 0 1.478 .224 1.868 .672c.389 .448 .585 1.287 .585 2.519v8.536h4.049V35.711c0-2.425 .903-3.638 2.709-3.638c.874 0 1.507 .243 1.897 .727c.389 .486 .585 1.362 .585 2.631v8.368h4.049V34.087c0-1.623-.433-2.887-1.298-3.792C66.772 29.391 65.417 28.938 63.574 28.938z"/><path d="M89.574 23.817L84.001 23.817L76.068 32.1L76.068 23.817L71.603 23.817L71.603 43.799L76.068 43.799L76.068 37.362L78.627 34.815L84.74 43.799L90.341 43.799L81.64 31.709Z"/><path d="M104.078 33.052c0-2.724-2.077-4.095-6.231-4.114c-2.004 0-3.603 .411-4.797 1.231c-1.195 .821-1.838 2.024-1.93 3.61h3.915c.073-.784 .321-1.344 .745-1.679c.423-.336 1.048-.504 1.875-.504c.9 0 1.544 .159 1.93 .476c.386 .318 .579 .802 .579 1.455c0 .504-.212 .886-.634 1.147c-.203 .131-.556 .252-1.062 .364c-.506 .112-1.154 .205-1.944 .28c-1.103 .112-2.031 .285-2.784 .518c-.754 .234-1.356 .536-1.806 .91c-.45 .373-.772 .816-.965 1.329c-.193 .513-.289 1.106-.289 1.777c0 1.362 .436 2.426 1.31 3.19c.873 .765 2.054 1.147 3.543 1.147c2.04 0 3.639-.597 4.797-1.791c.018 .243 .05 .481 .096 .713c.045 .234 .105 .462 .179 .686h3.97c-.331-.653-.496-1.679-.496-3.079V33.052zM100.162 38.258c0 .727-.138 1.325-.413 1.791c-.276 .466-.62 .821-1.034 1.063c-.413 .243-.86 .382-1.337 .42c-.478 .037-.924-.014-1.337-.154s-.758-.354-1.034-.644c-.275-.289-.413-.639-.413-1.049c0-.727 .257-1.255 .772-1.581c.515-.326 1.323-.555 2.426-.686c1.25-.131 2.04-.364 2.371-.7V38.258z"/><path d="M107.032 29.33H110.947V43.799H107.032Z"/><path d="M113.338 22.633c-.662 0-1.967-.382-2.95-1.411s-1.133-1.967-1.133-2.627c0-.66-.032-.851-.469-.851c-.259 0-.378 .266-.378 .929c0 .662-.382 1.753-1.411 2.736c-1.029 .983-1.967 1.133-2.627 1.133c-.66 0-.851 .032-.851 .469c0 .259 .266 .378 .929 .378c.662 0 1.753 .382 2.736 1.411c.983 1.029 1.133 1.967 1.133 2.627s.032 .851 .469 .851c.259 0 .378-.266 .378-.929c0-.662 .382-1.753 1.411-2.736c1.029-.983 2.181-1.133 2.841-1.133c.66 0 .851-.032 .851-.469C114.267 22.751 114 22.633 113.338 22.633z"/><path d="M115.375 17.975c-.239 0-.763-.152-1.152-.559c-.397-.415-.443-.778-.443-1.016c0-.249 0-.591-.421-.591c-.381 0-.381 .471-.381 .625c0 .26-.173 .688-.559 1.057c-.415 .397-.779 .443-1.016 .443c-.249 0-.591 0-.591 .421c0 .381 .471 .381 .625 .381c.26 0 .688 .173 1.057 .559c.397 .415 .443 .779 .443 1.016c0 .249 0 .591 .421 .591c.381 0 .381-.471 .381-.625c0-.26 .173-.688 .559-1.057c.383-.366 .815-.443 1.11-.443c.249 0 .591 0 .591-.421C116.001 17.975 115.53 17.975 115.375 17.975z"/></svg>
